bicep_curl
version=1
nRows=538
nColumns=3
inDegrees=yes

# SIMM Motion File Header:
name bicep_curl
datacolumns 3
datarows 538
otherdata 1
range 0.0000 0.5370
endheader
time	/jointset/r_shoulder/r_shoulder_elev/value	/jointset/r_elbow/r_elbow_flex/value
0.0000	0.0000	134.2600
0.0010	0.0000	134.0532
0.0020	0.0000	133.8464
0.0030	0.0000	133.6396
0.0040	0.0000	133.4327
0.0050	0.0000	133.2258
0.0060	0.0000	133.0189
0.0070	0.0000	132.8119
0.0080	0.0000	132.6049
0.0090	0.0000	132.3978
0.0100	0.0000	132.1907
0.0110	0.0000	131.9836
0.0120	0.0000	131.7764
0.0130	0.0000	131.5692
0.0140	0.0000	131.3620
0.0150	0.0000	131.1547
0.0160	0.0000	130.9474
0.0170	0.0000	130.7400
0.0180	0.0000	130.5326
0.0190	0.0000	130.3252
0.0200	0.0000	130.1178
0.0210	0.0000	129.9103
0.0220	0.0000	129.7027
0.0230	0.0000	129.4952
0.0240	0.0000	129.2876
0.0250	0.0000	129.0799
0.0260	0.0000	128.8722
0.0270	0.0000	128.6645
0.0280	0.0000	128.4568
0.0290	0.0000	128.2490
0.0300	0.0000	128.0412
0.0310	0.0000	127.8333
0.0320	0.0000	127.6254
0.0330	0.0000	127.4175
0.0340	0.0000	127.2095
0.0350	0.0000	127.0015
0.0360	0.0000	126.7934
0.0370	0.0000	126.5854
0.0380	0.0000	126.3773
0.0390	0.0000	126.1691
0.0400	0.0000	125.9609
0.0410	0.0000	125.7527
0.0420	0.0000	125.5444
0.0430	0.0000	125.3361
0.0440	0.0000	125.1278
0.0450	0.0000	124.9194
0.0460	0.0000	124.7110
0.0470	0.0000	124.5026
0.0480	0.0000	124.2941
0.0490	0.0000	124.0856
0.0500	0.0000	123.8770
0.0510	0.0000	123.6684
0.0520	0.0000	123.4598
0.0530	0.0000	123.2511
0.0540	0.0000	123.0424
0.0550	0.0000	122.8337
0.0560	0.0000	122.6249
0.0570	0.0000	122.4161
0.0580	0.0000	122.2072
0.0590	0.0000	121.9984
0.0600	0.0000	121.7894
0.0610	0.0000	121.5805
0.0620	0.0000	121.3715
0.0630	0.0000	121.1625
0.0640	0.0000	120.9534
0.0650	0.0000	120.7443
0.0660	0.0000	120.5352
0.0670	0.0000	120.3260
0.0680	0.0000	120.1168
0.0690	0.0000	119.9075
0.0700	0.0000	119.6982
0.0710	0.0000	119.4889
0.0720	0.0000	119.2795
0.0730	0.0000	119.0702
0.0740	0.0000	118.8607
0.0750	0.0000	118.6513
0.0760	0.0000	118.4417
0.0770	0.0000	118.2322
0.0780	0.0000	118.0226
0.0790	0.0000	117.8130
0.0800	0.0000	117.6034
0.0810	0.0000	117.3937
0.0820	0.0000	117.1840
0.0830	0.0000	116.9742
0.0840	0.0000	116.7644
0.0850	0.0000	116.5546
0.0860	0.0000	116.3447
0.0870	0.0000	116.1348
0.0880	0.0000	115.9248
0.0890	0.0000	115.7149
0.0900	0.0000	115.5048
0.0910	0.0000	115.2948
0.0920	0.0000	115.0847
0.0930	0.0000	114.8746
0.0940	0.0000	114.6644
0.0950	0.0000	114.4542
0.0960	0.0000	114.2440
0.0970	0.0000	114.0337
0.0980	0.0000	113.8234
0.0990	0.0000	113.6131
0.1000	0.0000	113.4027
0.1010	0.0000	113.1923
0.1020	0.0000	112.9818
0.1030	0.0000	112.7713
0.1040	0.0000	112.5608
0.1050	0.0000	112.3502
0.1060	0.0000	112.1396
0.1070	0.0000	111.9290
0.1080	0.0000	111.7183
0.1090	0.0000	111.5076
0.1100	0.0000	111.2968
0.1110	0.0000	111.0861
0.1120	0.0000	110.8752
0.1130	0.0000	110.6644
0.1140	0.0000	110.4535
0.1150	0.0000	110.2426
0.1160	0.0000	110.0316
0.1170	0.0000	109.8206
0.1180	0.0000	109.6096
0.1190	0.0000	109.3985
0.1200	0.0000	109.1874
0.1210	0.0000	108.9762
0.1220	0.0000	108.7650
0.1230	0.0000	108.5538
0.1240	0.0000	108.3426
0.1250	0.0000	108.1313
0.1260	0.0000	107.9199
0.1270	0.0000	107.7086
0.1280	0.0000	107.4972
0.1290	0.0000	107.2857
0.1300	0.0000	107.0742
0.1310	0.0000	106.8627
0.1320	0.0000	106.6512
0.1330	0.0000	106.4396
0.1340	0.0000	106.2280
0.1350	0.0000	106.0163
0.1360	0.0000	105.8046
0.1370	0.0000	105.5929
0.1380	0.0000	105.3811
0.1390	0.0000	105.1693
0.1400	0.0000	104.9574
0.1410	0.0000	104.7456
0.1420	0.0000	104.5337
0.1430	0.0000	104.3217
0.1440	0.0000	104.1097
0.1450	0.0000	103.8977
0.1460	0.0000	103.6856
0.1470	0.0000	103.4735
0.1480	0.0000	103.2614
0.1490	0.0000	103.0492
0.1500	0.0000	102.8370
0.1510	0.0000	102.6248
0.1520	0.0000	102.4125
0.1530	0.0000	102.2002
0.1540	0.0000	101.9878
0.1550	0.0000	101.7754
0.1560	0.0000	101.5630
0.1570	0.0000	101.3505
0.1580	0.0000	101.1380
0.1590	0.0000	100.9255
0.1600	0.0000	100.7129
0.1610	0.0000	100.5003
0.1620	0.0000	100.2877
0.1630	0.0000	100.0750
0.1640	0.0000	99.8623
0.1650	0.0000	99.6495
0.1660	0.0000	99.4367
0.1670	0.0000	99.2239
0.1680	0.0000	99.0110
0.1690	0.0000	98.7981
0.1700	0.0000	98.5852
0.1710	0.0000	98.3722
0.1720	0.0000	98.1592
0.1730	0.0000	97.9461
0.1740	0.0000	97.7330
0.1750	0.0000	97.5199
0.1760	0.0000	97.3068
0.1770	0.0000	97.0936
0.1780	0.0000	96.8803
0.1790	0.0000	96.6671
0.1800	0.0000	96.4538
0.1810	0.0000	96.2404
0.1820	0.0000	96.0270
0.1830	0.0000	95.8136
0.1840	0.0000	95.6002
0.1850	0.0000	95.3867
0.1860	0.0000	95.1732
0.1870	0.0000	94.9596
0.1880	0.0000	94.7460
0.1890	0.0000	94.5324
0.1900	0.0000	94.3187
0.1910	0.0000	94.1050
0.1920	0.0000	93.8913
0.1930	0.0000	93.6775
0.1940	0.0000	93.4637
0.1950	0.0000	93.2498
0.1960	0.0000	93.0359
0.1970	0.0000	92.8220
0.1980	0.0000	92.6080
0.1990	0.0000	92.3940
0.2000	0.0000	92.1800
0.2010	0.0000	91.9659
0.2020	0.0000	91.7518
0.2030	0.0000	91.5377
0.2040	0.0000	91.3235
0.2050	0.0000	91.1093
0.2060	0.0000	90.8950
0.2070	0.0000	90.6807
0.2080	0.0000	90.4664
0.2090	0.0000	90.2520
0.2100	0.0000	90.0376
0.2110	0.0000	89.8232
0.2120	0.0000	89.6087
0.2130	0.0000	89.3942
0.2140	0.0000	89.1797
0.2150	0.0000	88.9651
0.2160	0.0000	88.7505
0.2170	0.0000	88.5358
0.2180	0.0000	88.3211
0.2190	0.0000	88.1064
0.2200	0.0000	87.8916
0.2210	0.0000	87.6768
0.2220	0.0000	87.4620
0.2230	0.0000	87.2471
0.2240	0.0000	87.0322
0.2250	0.0000	86.8173
0.2260	0.0000	86.6023
0.2270	0.0000	86.3873
0.2280	0.0000	86.1722
0.2290	0.0000	85.9571
0.2300	0.0000	85.7420
0.2310	0.0000	85.5268
0.2320	0.0000	85.3116
0.2330	0.0000	85.0964
0.2340	0.0000	84.8811
0.2350	0.0000	84.6658
0.2360	0.0000	84.4504
0.2370	0.0000	84.2350
0.2380	0.0000	84.0196
0.2390	0.0000	83.8041
0.2400	0.0000	83.5886
0.2410	0.0000	83.3731
0.2420	0.0000	83.1575
0.2430	0.0000	82.9419
0.2440	0.0000	82.7263
0.2450	0.0000	82.5106
0.2460	0.0000	82.2949
0.2470	0.0000	82.0792
0.2480	0.0000	81.8634
0.2490	0.0000	81.6475
0.2500	0.0000	81.4317
0.2510	0.0000	81.2158
0.2520	0.0000	80.9998
0.2530	0.0000	80.7839
0.2540	0.0000	80.5679
0.2550	0.0000	80.3518
0.2560	0.0000	80.1357
0.2570	0.0000	79.9196
0.2580	0.0000	79.7035
0.2590	0.0000	79.4873
0.2600	0.0000	79.2710
0.2610	0.0000	79.0548
0.2620	0.0000	78.8385
0.2630	0.0000	78.6221
0.2640	0.0000	78.4058
0.2650	0.0000	78.1894
0.2660	0.0000	77.9729
0.2670	0.0000	77.7564
0.2680	0.0000	77.5399
0.2690	0.0000	77.3234
0.2700	0.0000	77.1068
0.2710	0.0000	76.8901
0.2720	0.0000	76.6735
0.2730	0.0000	76.4568
0.2740	0.0000	76.2400
0.2750	0.0000	76.0233
0.2760	0.0000	75.8064
0.2770	0.0000	75.5896
0.2780	0.0000	75.3727
0.2790	0.0000	75.1558
0.2800	0.0000	74.9388
0.2810	0.0000	74.7218
0.2820	0.0000	74.5048
0.2830	0.0000	74.2877
0.2840	0.0000	74.0706
0.2850	0.0000	73.8535
0.2860	0.0000	73.6363
0.2870	0.0000	73.4191
0.2880	0.0000	73.2019
0.2890	0.0000	72.9846
0.2900	0.0000	72.7672
0.2910	0.0000	72.5499
0.2920	0.0000	72.3325
0.2930	0.0000	72.1151
0.2940	0.0000	71.8976
0.2950	0.0000	71.6801
0.2960	0.0000	71.4625
0.2970	0.0000	71.2450
0.2980	0.0000	71.0273
0.2990	0.0000	70.8097
0.3000	0.0000	70.5920
0.3010	0.0000	70.3743
0.3020	0.0000	70.1565
0.3030	0.0000	69.9387
0.3040	0.0000	69.7209
0.3050	0.0000	69.5030
0.3060	0.0000	69.2851
0.3070	0.0000	69.0672
0.3080	0.0000	68.8492
0.3090	0.0000	68.6312
0.3100	0.0000	68.4131
0.3110	0.0000	68.1950
0.3120	0.0000	67.9769
0.3130	0.0000	67.7587
0.3140	0.0000	67.5405
0.3150	0.0000	67.3223
0.3160	0.0000	67.1040
0.3170	0.0000	66.8857
0.3180	0.0000	66.6674
0.3190	0.0000	66.4490
0.3200	0.0000	66.2306
0.3210	0.0000	66.0121
0.3220	0.0000	65.7936
0.3230	0.0000	65.5751
0.3240	0.0000	65.3565
0.3250	0.0000	65.1379
0.3260	0.0000	64.9193
0.3270	0.0000	64.7006
0.3280	0.0000	64.4819
0.3290	0.0000	64.2632
0.3300	0.0000	64.0444
0.3310	0.0000	63.8255
0.3320	0.0000	63.6067
0.3330	0.0000	63.3878
0.3340	0.0000	63.1689
0.3350	0.0000	62.9499
0.3360	0.0000	62.7309
0.3370	0.0000	62.5119
0.3380	0.0000	62.2928
0.3390	0.0000	62.0737
0.3400	0.0000	61.8545
0.3410	0.0000	61.6353
0.3420	0.0000	61.4161
0.3430	0.0000	61.1968
0.3440	0.0000	60.9775
0.3450	0.0000	60.7582
0.3460	0.0000	60.5388
0.3470	0.0000	60.3194
0.3480	0.0000	60.1000
0.3490	0.0000	59.8805
0.3500	0.0000	59.6610
0.3510	0.0000	59.4415
0.3520	0.0000	59.2219
0.3530	0.0000	59.0022
0.3540	0.0000	58.7826
0.3550	0.0000	58.5629
0.3560	0.0000	58.3431
0.3570	0.0000	58.1234
0.3580	0.0000	57.9036
0.3590	0.0000	57.6837
0.3600	0.0000	57.4638
0.3610	0.0000	57.2439
0.3620	0.0000	57.0240
0.3630	0.0000	56.8040
0.3640	0.0000	56.5840
0.3650	0.0000	56.3639
0.3660	0.0000	56.1438
0.3670	0.0000	55.9237
0.3680	0.0000	55.7035
0.3690	0.0000	55.4833
0.3700	0.0000	55.2630
0.3710	0.0000	55.0428
0.3720	0.0000	54.8224
0.3730	0.0000	54.6021
0.3740	0.0000	54.3817
0.3750	0.0000	54.1613
0.3760	0.0000	53.9408
0.3770	0.0000	53.7203
0.3780	0.0000	53.4998
0.3790	0.0000	53.2792
0.3800	0.0000	53.0586
0.3810	0.0000	52.8379
0.3820	0.0000	52.6172
0.3830	0.0000	52.3965
0.3840	0.0000	52.1758
0.3850	0.0000	51.9550
0.3860	0.0000	51.7341
0.3870	0.0000	51.5133
0.3880	0.0000	51.2924
0.3890	0.0000	51.0714
0.3900	0.0000	50.8504
0.3910	0.0000	50.6294
0.3920	0.0000	50.4084
0.3930	0.0000	50.1873
0.3940	0.0000	49.9662
0.3950	0.0000	49.7450
0.3960	0.0000	49.5238
0.3970	0.0000	49.3026
0.3980	0.0000	49.0813
0.3990	0.0000	48.8600
0.4000	0.0000	48.6387
0.4010	0.0000	48.4173
0.4020	0.0000	48.1959
0.4030	0.0000	47.9744
0.4040	0.0000	47.7529
0.4050	0.0000	47.5314
0.4060	0.0000	47.3099
0.4070	0.0000	47.0883
0.4080	0.0000	46.8666
0.4090	0.0000	46.6450
0.4100	0.0000	46.4232
0.4110	0.0000	46.2015
0.4120	0.0000	45.9797
0.4130	0.0000	45.7579
0.4140	0.0000	45.5361
0.4150	0.0000	45.3142
0.4160	0.0000	45.0922
0.4170	0.0000	44.8703
0.4180	0.0000	44.6483
0.4190	0.0000	44.4262
0.4200	0.0000	44.2042
0.4210	0.0000	43.9821
0.4220	0.0000	43.7599
0.4230	0.0000	43.5377
0.4240	0.0000	43.3155
0.4250	0.0000	43.0933
0.4260	0.0000	42.8710
0.4270	0.0000	42.6486
0.4280	0.0000	42.4263
0.4290	0.0000	42.2039
0.4300	0.0000	41.9814
0.4310	0.0000	41.7590
0.4320	0.0000	41.5364
0.4330	0.0000	41.3139
0.4340	0.0000	41.0913
0.4350	0.0000	40.8687
0.4360	0.0000	40.6460
0.4370	0.0000	40.4233
0.4380	0.0000	40.2006
0.4390	0.0000	39.9778
0.4400	0.0000	39.7550
0.4410	0.0000	39.5322
0.4420	0.0000	39.3093
0.4430	0.0000	39.0864
0.4440	0.0000	38.8635
0.4450	0.0000	38.6405
0.4460	0.0000	38.4175
0.4470	0.0000	38.1944
0.4480	0.0000	37.9713
0.4490	0.0000	37.7482
0.4500	0.0000	37.5250
0.4510	0.0000	37.3018
0.4520	0.0000	37.0786
0.4530	0.0000	36.8553
0.4540	0.0000	36.6320
0.4550	0.0000	36.4086
0.4560	0.0000	36.1852
0.4570	0.0000	35.9618
0.4580	0.0000	35.7383
0.4590	0.0000	35.5148
0.4600	0.0000	35.2913
0.4610	0.0000	35.0677
0.4620	0.0000	34.8441
0.4630	0.0000	34.6205
0.4640	0.0000	34.3968
0.4650	0.0000	34.1731
0.4660	0.0000	33.9493
0.4670	0.0000	33.7255
0.4680	0.0000	33.5017
0.4690	0.0000	33.2779
0.4700	0.0000	33.0540
0.4710	0.0000	32.8300
0.4720	0.0000	32.6061
0.4730	0.0000	32.3820
0.4740	0.0000	32.1580
0.4750	0.0000	31.9339
0.4760	0.0000	31.7098
0.4770	0.0000	31.4856
0.4780	0.0000	31.2615
0.4790	0.0000	31.0372
0.4800	0.0000	30.8130
0.4810	0.0000	30.5887
0.4820	0.0000	30.3643
0.4830	0.0000	30.1399
0.4840	0.0000	29.9155
0.4850	0.0000	29.6911
0.4860	0.0000	29.4666
0.4870	0.0000	29.2421
0.4880	0.0000	29.0175
0.4890	0.0000	28.7929
0.4900	0.0000	28.5683
0.4910	0.0000	28.3436
0.4920	0.0000	28.1189
0.4930	0.0000	27.8942
0.4940	0.0000	27.6694
0.4950	0.0000	27.4446
0.4960	0.0000	27.2198
0.4970	0.0000	26.9949
0.4980	0.0000	26.7700
0.4990	0.0000	26.5450
0.5000	0.0000	26.3200
0.5010	0.0000	26.3200
0.5020	0.0000	26.3200
0.5030	0.0000	26.3200
0.5040	0.0000	26.3200
0.5050	0.0000	26.3200
0.5060	0.0000	26.3200
0.5070	0.0000	26.3200
0.5080	0.0000	26.3200
0.5090	0.0000	26.3200
0.5100	0.0000	26.3200
0.5110	0.0000	26.3200
0.5120	0.0000	26.3200
0.5130	0.0000	26.3200
0.5140	0.0000	26.3200
0.5150	0.0000	26.3200
0.5160	0.0000	26.3200
0.5170	0.0000	26.3200
0.5180	0.0000	26.3200
0.5190	0.0000	26.3200
0.5200	0.0000	26.3200
0.5210	0.0000	26.3200
0.5220	0.0000	26.3200
0.5230	0.0000	26.3200
0.5240	0.0000	26.3200
0.5250	0.0000	26.3200
0.5260	0.0000	26.3200
0.5270	0.0000	26.3200
0.5280	0.0000	26.3200
0.5290	0.0000	26.3200
0.5300	0.0000	26.3200
0.5310	0.0000	26.3200
0.5320	0.0000	26.3200
0.5330	0.0000	26.3200
0.5340	0.0000	26.3200
0.5350	0.0000	26.3200
0.5360	0.0000	26.3200
0.5370	0.0000	26.3200
